<svg
class="svg-icon"
style="width: 1em; height: 1em;vertical-align: middle;fill: currentColor;overflow: hidden;"
 viewBox="0 0 1024 1024"
 version="1.1"
 xmlns="http://www.w3.org/2000/svg">
 <path d="M512 0C314.026667 0 153.6 160.426667 153.6 358.4c0 348.16 334.506667 648.533333 348.16 662.186667 3.413333 3.413333 6.826667 3.413333 10.24 3.413333s6.826667 0 10.24-3.413333c13.653333-13.653333 348.16-314.026667 348.16-662.186667C870.4 160.426667 709.973333 0 512 0z m-54.613333 170.666667H580.266667c27.306667 0 47.786667 17.066667 58.026666 40.96l23.893334 95.573333h-283.306667l20.48-95.573333c10.24-23.893333 30.72-40.96 58.026667-40.96z m208.213333 300.373333v23.893333c0 10.24-6.826667 17.066667-17.066667 17.066667s-17.066667-6.826667-17.066666-17.066667V477.866667h-238.933334v17.066666c0 10.24-6.826667 17.066667-17.066666 17.066667s-17.066667-6.826667-17.066667-17.066667v-23.893333c-20.48-10.24-34.133333-30.72-34.133333-54.613333v-47.786667l54.613333-27.306667h279.893333l40.96 27.306667v51.2c0 20.48-13.653333 40.96-34.133333 51.2z" fill="" /><path d="M409.6 375.466667h-34.133333c-10.24 0-17.066667 6.826667-17.066667 17.066666s6.826667 17.066667 17.066667 17.066667h34.133333c10.24 0 17.066667-6.826667 17.066667-17.066667s-6.826667-17.066667-17.066667-17.066666zM648.533333 375.466667h-34.133333c-10.24 0-17.066667 6.826667-17.066667 17.066666s6.826667 17.066667 17.066667 17.066667h34.133333c10.24 0 17.066667-6.826667 17.066667-17.066667s-6.826667-17.066667-17.066667-17.066666z" fill="" />
 </svg>
